<?xml version="1.0" encoding="utf-8"?>
<!-- Generator: Adobe Illustrator 22.0.1, SVG Export Plug-In . SVG Version: 6.00 Build 0)  -->
<svg version="1.1" id="Layer_1" xmlns="http://www.w3.org/2000/svg" xmlns:xlink="http://www.w3.org/1999/xlink" x="0px" y="0px"
	 viewBox="0 0 200 200" style="enable-background:new 0 0 200 200;" xml:space="preserve">
<style type="text/css">
	.st0{fill-rule:evenodd;clip-rule:evenodd;fill:#FFFFFF;}
</style>
<path class="st0" d="M27.2,161c1.3-0.4,2.1-1.6,2.2-2.9c0.2-5.4,4.5-9.6,9.9-9.6c0.2,0,0.5,0,0.7,0c1.4,0.1,2.6-0.7,3.1-1.9
	c1.5-3.5,4.9-5.8,8.7-5.8c4.9,0,9,3.8,9.4,8.7c0.1,1.5,1.4,2.8,2.9,2.9c0.9,0.1,1.7,0.3,2.5,0.5c0,0,0,0,0,0
	c0.1,0.1,0.3,0.1,0.4,0.2c0,0,0.1,0,0.1,0c0.1,0.1,0.3,0.1,0.4,0.2c0,0,0.1,0,0.1,0.1c0.2,0.1,0.4,0.2,0.5,0.3
	c0.1,0.1,0.2,0.1,0.3,0.2c0.1,0,0.1,0.1,0.2,0.1c0.1,0.1,0.2,0.1,0.3,0.2c0.1,0,0.1,0.1,0.2,0.1c0.1,0.1,0.2,0.2,0.4,0.3
	c0,0,0.1,0.1,0.1,0.1c0.3,0.3,0.6,0.6,0.9,0.9c0,0,0,0.1,0.1,0.1c0.1,0.1,0.2,0.3,0.3,0.4c0,0,0,0.1,0.1,0.1
	c0.2,0.3,0.5,0.7,0.7,1.1c0,0,0.1,0.1,0.1,0.1c0.1,0.1,0.1,0.3,0.2,0.4c0,0.1,0.1,0.1,0.1,0.2c0.1,0.2,0.2,0.4,0.2,0.6c0,0,0,0,0,0
	c0.4,1,1.2,1.8,2.3,2c0.3,0.1,0.6,0.1,0.8,0.2c0.1,0,0.2,0.1,0.3,0.1c0.2,0.1,0.4,0.1,0.5,0.2c0.1,0,0.2,0.1,0.3,0.1
	c0.2,0.1,0.3,0.1,0.5,0.2c0.1,0.1,0.2,0.1,0.3,0.2c0.1,0.1,0.3,0.2,0.4,0.2c0.1,0.1,0.2,0.1,0.3,0.2c0.1,0.1,0.3,0.2,0.4,0.3
	c0.1,0.1,0.2,0.1,0.3,0.2c0.1,0.1,0.3,0.2,0.4,0.3c0.1,0.1,0.2,0.1,0.3,0.2c0.1,0.1,0.3,0.2,0.4,0.4c0.1,0.1,0.1,0.1,0.2,0.2
	c0.1,0.1,0.3,0.3,0.4,0.5c0,0.1,0.1,0.1,0.1,0.2c0.2,0.2,0.3,0.4,0.5,0.7c0,0,0.1,0.1,0.1,0.1c0.1,0.2,0.2,0.4,0.3,0.6
	c0,0.1,0.1,0.2,0.1,0.3c0.1,0.2,0.2,0.3,0.2,0.5c0,0.1,0.1,0.2,0.1,0.3c0.1,0.2,0.1,0.3,0.2,0.5c0,0.1,0.1,0.2,0.1,0.3
	c0.1,0.2,0.1,0.3,0.1,0.5c0,0.1,0.1,0.2,0.1,0.3c0,0.2,0.1,0.3,0.1,0.5c0,0.1,0,0.2,0.1,0.3c0,0.1,0,0.1,0,0.2H18.5
	C20,165.4,23.2,162.3,27.2,161 M196,104.5v-0.1c0-11.2-5.8-21.6-14.8-27c-0.9-18.7-15.4-33.7-33-33.7c-5.5,0-11,1.5-15.8,4.4
	c-1.5,0.9-2,2.8-1.1,4.3c0.9,1.5,2.8,2,4.3,1.1c3.9-2.3,8.2-3.5,12.6-3.5c14.7,0,26.7,13.1,26.7,29.2c0,1.2,0.7,2.3,1.7,2.8
	c7.9,4,13,12.8,13,22.3c0,12.1-8.2,22.5-19,24.3c-1,0.2-1.9,0.8-2.3,1.7c-3.4,7-9.5,11.8-16.5,13v-27.9l15.5-14.3
	c1.3-1.2,1.4-3.2,0.2-4.5c-1.2-1.3-3.2-1.4-4.5-0.2L151.9,107V85.9c0-1.7-1.4-3.2-3.2-3.2c-1.7,0-3.2,1.4-3.2,3.2v38.2l-11.3-10.4
	c-1.3-1.2-3.3-1.1-4.5,0.2c-1.2,1.3-1.1,3.3,0.2,4.5l15.5,14.3v10.9c-7.4-1-14-5.9-17.5-13.3c-0.4-0.9-1.2-1.5-2.2-1.7
	c-10.5-2.2-18.1-12.4-18.1-24.1c0-9.3,4.7-17.6,12.2-21.9c1-0.6,1.6-1.6,1.6-2.8c0-0.1,0-0.2,0-0.3c0,0,0-0.1,0-0.1
	c0-6.6,1.9-12.8,5.6-18c1-1.4,0.7-3.4-0.7-4.4c-1.4-1-3.4-0.7-4.4,0.7c-4.2,5.9-6.5,12.9-6.8,20.3c-8.6,5.6-13.8,15.5-13.8,26.4
	c0,14.1,9,26.5,21.6,29.9c4.7,8.9,13.1,14.7,22.6,15.6v19.3h-2c-0.5-8.3-6.1-15.4-14-17.9c-2.5-5.3-7.3-9.1-12.9-10.3
	c-1.8-8.4-9.4-14.7-18.2-14.7c-6.8,0-13,3.7-16.2,9.5c-6.5,0.2-12.3,3.7-15.6,9.1c-2.1-5.7-7.4-9.9-13.7-10.3v-8.3
	c8.5-1.2,16.1-6.5,20.5-14.6c5.9-1.4,11.2-4.8,15.1-9.7c4.3-5.4,6.6-12.2,6.6-19.3c0-10.8-5.5-20.7-14.2-26
	c-0.9-18-14.8-32.3-31.7-32.3c-6.5,0-12.7,2.1-18,6c-1.4,1-1.7,3-0.6,4.4c1,1.4,3,1.7,4.4,0.6c4.2-3.1,9.1-4.8,14.2-4.8
	c14,0,25.4,12.5,25.4,27.9c0,1.2,0.7,2.3,1.7,2.8c7.5,3.8,12.4,12.1,12.4,21.2c0,11.5-7.8,21.4-18.1,23.1c-1,0.2-1.9,0.8-2.3,1.7
	c-3.2,6.6-9,11.1-15.5,12.4V93.4l14.8-13.6c1.3-1.2,1.4-3.2,0.2-4.5c-1.2-1.3-3.2-1.4-4.5-0.2L53,84.8V64.9c0-1.7-1.4-3.2-3.2-3.2
	s-3.2,1.4-3.2,3.2v36.3l-10.6-9.7c-1.3-1.2-3.3-1.1-4.5,0.2c-1.2,1.3-1.1,3.3,0.2,4.5l14.8,13.6V120c-7-1-13.2-5.6-16.5-12.7
	c-0.4-0.9-1.2-1.5-2.2-1.7c-10-2.1-17.2-11.8-17.2-22.9c0-8.8,4.4-16.8,11.6-20.8c1-0.6,1.6-1.6,1.6-2.8c0-0.1,0-0.2,0-0.3
	c0,0,0-0.1,0-0.1c0-3.9,0.7-7.7,2.1-11.2c0.4-1.1,0.9-2.1,1.4-3.1c0.8-1.5,0.3-3.4-1.3-4.3c-1.5-0.8-3.4-0.3-4.3,1.3
	c-0.7,1.2-1.2,2.5-1.8,3.7c-1.6,3.9-2.4,8-2.6,12.2C9.4,62.7,4.4,72.2,4.4,82.7c0,13.6,8.6,25.4,20.7,28.8c4.5,8.5,12.5,14,21.5,15
	v9c-3.5,1.2-6.4,3.6-8.3,6.8c-7.7,0.4-13.9,6.1-15.1,13.6c-5.7,2.5-9.9,7.5-11.4,13.4H7.6c-1.7,0-3.2,1.4-3.2,3.2s1.4,3.2,3.2,3.2
	h185.2c1.7,0,3.2-1.4,3.2-3.2s-1.4-3.2-3.2-3.2h-40.9v-19.4c8.9-1.2,16.8-6.8,21.4-15.2c6.1-1.4,11.7-4.9,15.8-10.1
	C193.5,119,196,111.9,196,104.5z M88.9,169.2C88.9,169.2,88.9,169.2,88.9,169.2c0-0.5-0.1-0.8-0.2-1.2c0,0,0,0,0-0.1
	c-0.1-0.4-0.1-0.8-0.2-1.1c0,0,0,0,0,0c-0.1-0.4-0.2-0.7-0.3-1.1c0,0,0-0.1,0-0.1c-0.1-0.3-0.2-0.7-0.4-1c0,0,0-0.1-0.1-0.1
	c-0.1-0.3-0.3-0.6-0.4-1c0-0.1,0-0.1-0.1-0.1c-0.2-0.3-0.3-0.6-0.5-0.9c0,0-0.1-0.1-0.1-0.1c-0.2-0.3-0.4-0.6-0.6-0.9
	c0,0,0-0.1-0.1-0.1c-0.2-0.3-0.4-0.6-0.7-0.9c0,0,0,0,0-0.1c-0.2-0.3-0.5-0.6-0.7-0.9c0,0,0,0,0,0c-0.3-0.3-0.5-0.5-0.8-0.8
	c0,0,0,0-0.1-0.1c-0.3-0.2-0.5-0.5-0.8-0.7c0,0-0.1-0.1-0.1-0.1c-0.3-0.2-0.6-0.4-0.8-0.6c0,0-0.1-0.1-0.1-0.1
	c-0.3-0.2-0.6-0.4-0.9-0.6c0,0-0.1-0.1-0.1-0.1c-0.3-0.2-0.6-0.4-0.9-0.5c0,0-0.1,0-0.1-0.1c-0.3-0.2-0.7-0.3-1-0.5c0,0-0.1,0-0.1,0
	c-0.4-0.1-0.7-0.3-1.1-0.4c0,0,0,0,0,0c0,0,0-0.1-0.1-0.1c-0.1-0.3-0.3-0.5-0.4-0.8c-0.1-0.1-0.1-0.3-0.2-0.4
	c-0.1-0.1-0.2-0.3-0.3-0.4c-0.1-0.1-0.2-0.3-0.3-0.4c-0.1-0.1-0.2-0.2-0.3-0.4c-0.1-0.1-0.2-0.3-0.3-0.4c-0.1-0.1-0.1-0.2-0.2-0.2
	c-0.3-0.3-0.5-0.6-0.8-0.9c-0.1-0.1-0.1-0.1-0.1-0.2c-0.1-0.1-0.3-0.3-0.4-0.4c-0.1-0.1-0.2-0.2-0.3-0.2c-0.1-0.1-0.3-0.2-0.4-0.4
	c-0.1-0.1-0.2-0.2-0.3-0.3c-0.1-0.1-0.3-0.2-0.4-0.3c-0.2-0.1-0.4-0.3-0.6-0.4c-0.1,0-0.1-0.1-0.2-0.1c2.3-3.9,6.5-6.4,11.2-6.4
	c0.3,0,0.6,0,1,0c1.4,0.1,2.6-0.7,3.1-1.9c1.9-4.6,6.4-7.6,11.4-7.6c6.4,0,11.8,5,12.3,11.4c0.1,1.6,1.4,2.8,2.9,2.9
	c4.8,0.4,9,3.6,10.6,8.1c0.4,1,1.2,1.8,2.3,2c5.8,1.3,10.1,6.3,10.6,12.1L88.9,169.2L88.9,169.2z"/>
</svg>
