<?xml version="1.0" encoding="utf-8"?>
<!-- Generator: Adobe Illustrator 22.0.1, SVG Export Plug-In . SVG Version: 6.00 Build 0)  -->
<svg version="1.1" id="Layer_1" xmlns="http://www.w3.org/2000/svg" xmlns:xlink="http://www.w3.org/1999/xlink" x="0px" y="0px"
	 viewBox="0 0 200 200" style="enable-background:new 0 0 200 200;" xml:space="preserve">
<style type="text/css">
	.st0{fill-rule:evenodd;clip-rule:evenodd;fill:#FFFFFF;}
</style>
<path class="st0" d="M22,162.5h-7.8v-31.3H22V162.5z M71.7,147.8c-2.9,4.4-7.8,7-13,7H29.8v-7.8h28.9c2.6,0,5.1-1.3,6.5-3.5l5.4-8.1
	l6.7,4L71.7,147.8z M97,130.3c-2.7,4.5-9.2,6.2-13.7,3.4l-9.9-5.9c-2.7-1.6-4.4-4.6-4.4-7.8c0-2,0.6-3.9,1.8-5.5l4.6-6.1l25.9,14.9
	L97,130.3z M141.6,137.6L50.1,84.8c-2.8-1.6-4.6-4.7-4.6-8c0-1.9,0.6-3.7,1.7-5.3l9.8-14l96.7,55.8L141.6,137.6z M170.5,111.7
	c0,9.9-7.4,18-17,19.3l8.2-16.4l8.7-4.3C170.5,110.8,170.5,111.3,170.5,111.7z M194,96.1v-0.2c0-1.4-0.8-2.6-2-3.3L86,32
	c-8.2-4.7-19.4-2.2-24.8,5.6L40.7,66.9c-2,2.9-3.1,6.3-3.1,9.8c0,6.1,3.3,11.7,8.5,14.8l22.4,12.9l-4,5.4c-2.2,2.9-3.4,6.5-3.4,10.2
	c0,3.7,1.4,7.3,3.6,10.2l-6,9H29.8v-11.8c0-2.2-1.7-3.9-3.9-3.9H10.3c-2.2,0-3.9,1.7-3.9,3.9v39.1c0,2.2,1.7,3.9,3.9,3.9h15.6
	c2.2,0,3.9-1.7,3.9-3.9v-3.9h28.9c7.9,0,15.2-3.9,19.5-10.4l6.4-9.6c1.2,0.3,2.5,0.5,3.8,0.5c6.2,0,12.1-3.3,15.3-8.7l4.3-7.2
	l33.3,19.2c0.6,0.3,1.3,0.5,2,0.5c0.4,0,0.8-0.1,1.1-0.2c1-0.3,1.9-1,2.4-2l2.9-5.8c0.5,0,0.9,0.1,1.4,0.1
	c15.1,0,27.4-12.3,27.4-27.4c0-1.7-0.2-3.4-0.6-5.1l14.1-7C193.1,98.9,194,97.6,194,96.1z M82,118.3c2.7,0,4.9,2.2,4.9,4.9
	c0,2.7-2.2,4.9-4.9,4.9c-2.7,0-4.9-2.2-4.9-4.9C77.1,120.5,79.3,118.3,82,118.3z M159,107.3L61.4,51l6.2-8.9c2.1-2.9,5.4-4.7,9-4.7
	c1.9,0,3.8,0.5,5.5,1.5l99.7,57L159,107.3z"/>
</svg>
