<?xml version="1.0" encoding="utf-8"?>
<!-- Generator: Adobe Illustrator 22.0.1, SVG Export Plug-In . SVG Version: 6.00 Build 0)  -->
<svg version="1.1" id="Layer_1" xmlns="http://www.w3.org/2000/svg" xmlns:xlink="http://www.w3.org/1999/xlink" x="0px" y="0px"
	 viewBox="0 0 200 200" style="enable-background:new 0 0 200 200;" xml:space="preserve">
<style type="text/css">
	.st0{fill-rule:evenodd;clip-rule:evenodd;fill:#FFFFFF;}
</style>
<path class="st0" d="M150.8,177.8c1.8-1.8,2.9-4.2,2.9-6.9v-71c0-2.7-1.1-5.1-2.8-6.9l0,0c-1.8-1.8-4.2-2.8-6.9-2.8H56.3
	c-2.7,0-5.1,1.1-6.9,2.8l0,0c-1.8,1.8-2.8,4.2-2.8,6.9v71c0,2.7,1.1,5.1,2.8,6.9c1.8,1.8,4.2,2.8,6.9,2.8h87.5
	C146.6,180.6,149,179.5,150.8,177.8 M77,28.9C71.1,34.8,67.5,43,67.5,52v24.6c0,0.6,0.2,1.1,0.6,1.5l0,0c0.4,0.4,0.9,0.6,1.5,0.6h61
	c0.6,0,1.1-0.2,1.5-0.6l0,0c0.4-0.4,0.6-0.9,0.6-1.5V52c0-18-14.6-32.6-32.6-32.6C91.1,19.4,83,23,77,28.9z M144.1,52v24.8
	c0,0.6,0.2,1.1,0.5,1.5c0.3,0.4,0.8,0.6,1.4,0.7c5.4,0.5,10.1,3.1,13.5,6.8c3.4,3.8,5.4,8.7,5.4,14.1v71c0,5.8-2.4,11.1-6.2,14.9
	c-3.8,3.8-9.1,6.2-14.9,6.2H56.3c-5.8,0-11.1-2.4-14.9-6.2h0c-3.8-3.8-6.2-9.1-6.2-14.9v-71c0-5.4,2.1-10.4,5.4-14.1
	c3.4-3.8,8.1-6.3,13.5-6.9c0.6-0.1,1-0.3,1.4-0.7c0.3-0.4,0.5-0.9,0.5-1.5V52c0-12.1,4.9-23.1,12.9-31.1C77,12.9,88,8,100.1,8
	s23.1,4.9,31.1,12.9C139.2,28.9,144.1,39.9,144.1,52z"/>
<path class="st0" d="M100.1,135.7c-4.3,0-7.8,3.5-7.8,7.8V159c0,4.3,3.5,7.8,7.8,7.8c4.3,0,7.8-3.5,7.8-7.8v-15.4
	C107.9,139.3,104.5,135.7,100.1,135.7"/>
</svg>
