<?xml version="1.0" encoding="utf-8"?>
<!-- Generator: Adobe Illustrator 22.1.0, SVG Export Plug-In . SVG Version: 6.00 Build 0)  -->
<svg version="1.1" id="Layer_1" xmlns="http://www.w3.org/2000/svg" xmlns:xlink="http://www.w3.org/1999/xlink" x="0px" y="0px"
	 viewBox="0 0 150 117" style="enable-background:new 0 0 150 117;" xml:space="preserve">
<style type="text/css">
	.st0{fill:#C29C70;}
</style>
<g>
	<path class="st0" d="M4.6,23.3c0,1.7,0.6,3.1,1.7,4.2c1.1,1.1,2.5,1.7,4.2,1.7H140c1.7,0,3.1-0.6,4.2-1.7c1.1-1.1,1.7-2.5,1.7-4.2
		V8.6c0-1.7-0.6-3.1-1.7-4.2c-1.1-1.1-2.5-1.7-4.2-1.7H10.5c-1.7,0-3.1,0.6-4.2,1.7C5.1,5.5,4.6,6.9,4.6,8.6V23.3z M10.5,70.1
		c-1.7,0-3.1-0.6-4.2-1.7c-1.1-1.1-1.7-2.5-1.7-4.2V49.5c0-1.7,0.6-3.1,1.7-4.2c1.1-1.1,2.5-1.7,4.2-1.7H140c1.7,0,3.1,0.6,4.2,1.7
		c1.1,1.1,1.7,2.5,1.7,4.2v14.7c0,1.7-0.6,3.1-1.7,4.2s-2.5,1.7-4.2,1.7H10.5z M10.5,114c-1.7,0-3.1-0.6-4.2-1.7
		c-1.1-1.1-1.7-2.5-1.7-4.2V93.4c0-1.7,0.6-3.1,1.7-4.2c1.1-1.1,2.5-1.7,4.2-1.7H140c1.7,0,3.1,0.6,4.2,1.7c1.1,1.1,1.7,2.5,1.7,4.2
		v14.7c0,1.7-0.6,3.1-1.7,4.2s-2.5,1.7-4.2,1.7H10.5z"/>
</g>
</svg>
