<?xml version="1.0" encoding="utf-8"?>
<!-- Generator: Adobe Illustrator 22.0.1, SVG Export Plug-In . SVG Version: 6.00 Build 0)  -->
<svg version="1.1" id="Layer_1" xmlns="http://www.w3.org/2000/svg" xmlns:xlink="http://www.w3.org/1999/xlink" x="0px" y="0px"
	 viewBox="0 0 200 200" style="enable-background:new 0 0 200 200;" xml:space="preserve">
<style type="text/css">
	.st0{fill-rule:evenodd;clip-rule:evenodd;fill:#FFFFFF;}
</style>
<path class="st0" d="M134.3,149v13h31.2v-13H134.3z M99.9,95.3c0.5-0.3,1.1-0.5,1.7-0.5h8.2V81.8H100c-2.6,0-5,0.7-7.1,2
	c-2.1,1.3-3.8,3.1-5,5.4l-24.8,48c-3.8,7.4-9.5,13.4-16.4,17.6c-6.8,4.2-14.8,6.5-23.1,6.5h-8.2v12.9h9.4c10.4,0,20.4-2.9,28.9-8.1
	c8.5-5.2,15.6-12.7,20.4-21.9l24.6-47.6c0.2-0.4,0.5-0.7,0.8-1C99.6,95.4,99.8,95.3,99.9,95.3z M172.2,91v82.6h11.1V91H172.2z
	 M165.6,129.3h-31.2v13h31.2V129.3z M165.6,109.6h-31.2v13h31.2V109.6z M134.3,102.9h31.2V91h-31.2V102.9z M127.7,91h-11.1v82.6
	h11.1V91z M116.6,84.4h66.8V57h-66.8V84.4z M190,49.8c0,0.6-0.2,1.2-0.5,1.7l0,0c0.4,0.5,0.6,1.1,0.6,1.7V177c0,0.9-0.4,1.7-1,2.3
	l0,0c-0.6,0.6-1.4,1-2.3,1h-17.8c-0.9,0-1.8-0.4-2.4-1l0,0c-0.6-0.6-1-1.4-1-2.4v-8.3h-31.2v8.3c0,0.9-0.4,1.7-1,2.3l0,0
	c-0.6,0.6-1.4,1-2.3,1h-17.8c-0.9,0-1.8-0.4-2.4-1l0,0c-0.6-0.6-1-1.4-1-2.4v-75.6h-6.2L80,147.2c-2.6,5.1-5.9,9.7-9.8,13.8
	c-3.9,4.1-8.3,7.7-13.1,10.7c-4.9,3-10.1,5.2-15.5,6.8c-5.5,1.5-11.1,2.3-16.8,2.3H12c-0.9,0-1.8-0.4-2.4-1l0,0
	c-0.6-0.6-1-1.4-1-2.4v-19.6c0-0.9,0.4-1.8,1-2.4c0.6-0.6,1.4-1,2.4-1h11.6c7.1,0,13.9-2,19.7-5.5c5.8-3.5,10.7-8.6,13.9-14.9
	l24.8-48c1.7-3.4,4.3-6.1,7.5-8c3.1-1.9,6.8-3,10.5-3h9.9v-22c0-0.6,0.2-1.2,0.6-1.7c-0.3-0.5-0.6-1.1-0.6-1.7v-0.9
	c0-0.4,0.1-0.8,0.2-1.2c0-0.1,0.1-0.2,0.2-0.4c0.2-0.5,0.6-0.9,1-1.2l0,0l36.5-26.3l0.1-0.1c0.6-0.4,1.3-0.6,2-0.6
	c0.6,0,1.2,0.2,1.8,0.5l0.2,0.1l36.5,26.3l0.2,0.1c0.4,0.3,0.8,0.7,1,1.2c0.2,0.5,0.4,1,0.4,1.5L190,49.8L190,49.8z M149.9,26.6
	l-33,23.7h65.9L149.9,26.6z"/>
</svg>
