<?xml version="1.0" encoding="utf-8"?>
<!-- Generator: Adobe Illustrator 22.1.0, SVG Export Plug-In . SVG Version: 6.00 Build 0)  -->
<svg version="1.1" id="Layer_1" xmlns="http://www.w3.org/2000/svg" xmlns:xlink="http://www.w3.org/1999/xlink" x="0px" y="0px"
	 viewBox="0 0 240 150" style="enable-background:new 0 0 240 150;" xml:space="preserve">
<style type="text/css">
	.st0{fill-rule:evenodd;clip-rule:evenodd;fill:#C29C70;}
	.st1{fill-rule:evenodd;clip-rule:evenodd;fill:#525254;}
	.st2{fill:#525254;}
	.st3{fill:#C29C70;}
</style>
<path class="st0" d="M126.1,8.8l-22.7-6.1V6l22.7,6.1V8.8z M110.2,38.4l-3.1-0.8V13.2l3.1,0.8V38.4z M115.4,39.8l-3.1-0.8V14.6
	l3.1,0.8V39.8z M141.6,46.7l-2.3-0.6v-12l2.3-0.6V46.7z M145.4,47.8l-2.3-0.6v-14l2.3-0.6V47.8z M146.9,32.1l1.2-0.3v-1.9l-13.4,3.6
	v1.9l3.1-0.8v11.1l-20.3-5.4V16l4.2,1.1v-2.6l-18.3-4.9v2.6l1.6,0.4c0,8.8,0,17.6,0,26.4l41.9,11.1L146.9,32.1z M131.5,29.3
	l16.7-4.5v2.4l-16.7,4.5V29.3z"/>
<path class="st1" d="M161.6,33.5l-13.4-3.6v1.9l13.4,3.6V33.5z M157.7,37.7L157.7,37.7c-0.4,0-0.8,0.3-0.8,0.8v14.3l1.5,0.4V38.5
	C158.5,38,158.1,37.7,157.7,37.7z M150.1,35.8L150.1,35.8c-0.4,0-0.8,0.3-0.8,0.8v14.1l1.5,0.4V36.6
	C150.9,36.1,150.5,35.8,150.1,35.8z M153.9,36.7L153.9,36.7c-0.4,0-0.8,0.3-0.8,0.8v14.2l1.5,0.4V37.5
	C154.7,37.1,154.3,36.7,153.9,36.7z M164.8,29.3l-16.7-4.5v2.4l16.7,4.5V29.3z"/>
<path class="st1" d="M85.1,14.4l18.3-4.9v2.6l-18.3,4.9V14.4z M95.5,18.9L95.5,18.9c0.6,0,1.1,0.5,1.1,1.1v16.8l-2.1-0.6V19.9
	C94.4,19.4,94.9,18.9,95.5,18.9z M90.3,20.2L90.3,20.2c0.6,0,1.1,0.5,1.1,1.1v14.1l-2.1-0.6V21.2C89.2,20.6,89.7,20.2,90.3,20.2z
	 M100.7,17.6L100.7,17.6c0.6,0,1.1,0.5,1.1,1.1v19.5l-2.1-0.6V18.7C99.6,18.1,100.1,17.6,100.7,17.6z M80.6,8.8l22.7-6.1V6L80.6,12
	V8.8z"/>
<path class="st2" d="M70.9,144.8c0.2,0.2,0.3,0.5,0.3,0.9c0.1,0.6,0.1,1,0.2,1.2c0.1,0.2,0.1,0.3,0.3,0.4c0.2,0.3,0.6,0.5,1.2,0.5
	c0.2,0,0.4,0.1,0.6,0.1c0.2,0,0.4,0,0.6,0c0-0.1-0.1-0.1-0.1-0.2h0c-0.2,0-0.3,0-0.5,0c-0.3-0.1-0.6-0.2-0.8-0.4
	c-0.1-0.1-0.1-0.2-0.2-0.3c0-0.2-0.1-0.4-0.1-0.7c0-0.5-0.1-1-0.2-1.2c0-0.1-0.1-0.3-0.2-0.4c-0.2-0.2-0.4-0.3-0.7-0.4l-0.1,0l0.1,0
	c0.5-0.2,0.8-0.5,1.1-0.9c0.3-0.4,0.4-0.8,0.4-1.3c0-0.9-0.5-1.5-1.6-1.8c-0.6-0.2-1.1-0.3-1.7-0.3h-2.9v0.1l0.8,0.1v7.5l-0.8,0.1
	v0.2h2.7v-0.2l-0.8-0.1v-3h1.2c0,0,0,0,0.1,0C70.3,144.5,70.7,144.6,70.9,144.8 M68.4,144.1v-3.9l0,0c0.7,0,1.1,0,1.2,0
	c0.7,0.1,1.2,0.3,1.5,0.5c0.3,0.3,0.5,0.7,0.5,1.3c0,0.5-0.1,0.9-0.2,1.2c-0.1,0.2-0.3,0.4-0.6,0.6c-0.3,0.2-0.6,0.3-0.9,0.3
	C69.8,144.1,69.3,144.1,68.4,144.1L68.4,144.1z"/>
<path class="st2" d="M78.7,139.9v0.1l0.8,0.1v7.4l-0.8,0.1v0.2h5.2v-2l0,0c0,0,0,0,0,0c0,0.1-0.1,0.3-0.2,0.6
	c-0.2,0.4-0.3,0.6-0.4,0.7c-0.2,0.2-0.5,0.3-0.8,0.4l-1.9,0V143l0.7,0c0.3,0,0.5,0.1,0.7,0.3c0.1,0.1,0.2,0.3,0.4,0.7
	c0,0,0,0.1,0,0.1l0,0v-2.4l0,0l0,0c-0.2,0.5-0.3,0.7-0.4,0.8c-0.2,0.2-0.4,0.3-0.7,0.3h-0.7v-2.6h2.2c0.2,0.1,0.4,0.1,0.5,0.3
	c0.1,0.1,0.2,0.3,0.4,0.7c0.1,0.2,0.2,0.4,0.3,0.5l0,0v-1.7H78.7z"/>
<path class="st2" d="M91.4,139.8C91.4,139.8,91.4,139.8,91.4,139.8c-0.1,0-0.2,0-0.2,0h0c-0.9,0-1.6,0.3-2.1,1
	c-0.1,0.2-0.2,0.4-0.2,0.7c-0.1,1,0.1,1.6,0.4,1.9c0.4,0.3,1,0.6,1.8,0.9c0.6,0.2,1,0.4,1.3,0.6c0.4,0.3,0.6,0.7,0.6,1.3
	c0,0.5-0.1,0.9-0.4,1.2c-0.3,0.3-0.6,0.4-1,0.4c-0.3,0-0.7-0.1-1-0.2c-0.3-0.1-0.6-0.3-0.9-0.6c-0.3-0.3-0.4-0.5-0.4-0.8h-0.2v1.8
	h0.1c0,0,0,0,0,0c0,0,0,0,0,0c0-0.1,0-0.2,0.1-0.3c0.1-0.1,0.2-0.1,0.3-0.1c0,0,0.1,0,0.1,0c0.2,0.1,0.4,0.1,0.6,0.2
	c0.4,0.2,0.8,0.3,1,0.3c0,0,0.1,0,0.2,0c0.8,0,1.3-0.3,1.8-0.8c0.4-0.5,0.6-1,0.6-1.6c0-0.6-0.2-1.1-0.5-1.5
	c-0.3-0.3-0.9-0.6-1.9-0.9l-0.1,0c-0.6-0.2-1.1-0.4-1.4-0.7c-0.1-0.1-0.1-0.1-0.2-0.2l0,0c0,0,0-0.1-0.1-0.1c0-0.1,0-0.1-0.1-0.2
	c0,0,0-0.1,0-0.1c0-0.1,0-0.2,0-0.3c0-0.5,0.1-0.9,0.4-1.1c0.3-0.3,0.7-0.5,1.3-0.5c0.6,0,1.1,0.3,1.6,0.8c0.3,0.3,0.4,0.6,0.4,0.8
	h0.2v-1.8h0c0,0.1-0.1,0.2-0.1,0.3l-0.1,0v0c-0.1,0-0.2,0.1-0.2,0.1c0,0-0.2,0-0.4-0.1c-0.3-0.1-0.5-0.2-0.6-0.2v0l0,0
	c-0.1,0-0.2,0-0.3,0l0,0h0C91.5,139.8,91.5,139.8,91.4,139.8L91.4,139.8L91.4,139.8z"/>
<polygon class="st2" points="98.7,139.9 98.7,140 99.3,140.2 99.3,147.6 98.7,147.8 98.7,147.9 101.1,147.9 101.1,147.8 
	100.4,147.6 100.4,140.2 101.1,140 101.1,139.9 "/>
<path class="st2" d="M111.4,146.7c0.5-0.7,0.9-1.6,0.9-2.6c0-0.1,0-0.2,0-0.3c0,0,0-0.1,0-0.1v0c0,0,0-0.1,0-0.2
	c-0.1-0.9-0.4-1.8-0.9-2.6c-0.3-0.4-0.8-0.7-1.5-0.9c-0.4-0.1-0.7-0.1-1-0.1h-3v0.2l0.8,0.1v7.4l-0.8,0.1v0.2h3.2
	C110.1,147.9,110.8,147.5,111.4,146.7 M107.8,147.5v-7.4h0c0.8,0,1.2,0,1.3,0c0.8,0,1.3,0.4,1.7,1.2c0.3,0.6,0.4,1.4,0.4,2.4
	c0,0.4,0,0.6,0,0.6v0c0,1.1-0.2,1.9-0.6,2.5c-0.4,0.6-0.9,0.8-1.5,0.8C109,147.6,108.6,147.5,107.8,147.5L107.8,147.5z"/>
<path class="st2" d="M117.3,139.9v0.1l0.8,0.1v7.4l-0.8,0.1v0.2h5.2v-2l0,0c0,0,0,0,0,0c0,0.1-0.1,0.3-0.2,0.6
	c-0.2,0.4-0.3,0.6-0.4,0.7c-0.2,0.2-0.5,0.3-0.8,0.4l-1.9,0V143l0.7,0c0.3,0,0.5,0.1,0.7,0.3c0.1,0.1,0.2,0.3,0.4,0.7
	c0,0,0,0.1,0,0.1l0,0v-2.4l0,0l0,0c-0.2,0.5-0.3,0.7-0.4,0.8c-0.2,0.2-0.4,0.3-0.7,0.3H119v-2.6h2.2c0.2,0.1,0.4,0.1,0.5,0.3
	c0.1,0.1,0.2,0.3,0.4,0.7c0.1,0.2,0.2,0.4,0.3,0.5l0,0v-1.7H117.3z"/>
<polygon class="st2" points="132.9,139.9 132.9,140 133.7,140.2 133.7,145.6 130.2,139.9 127.4,139.9 127.4,140 128.5,140.2 
	128.5,147.6 127.7,147.7 127.7,147.9 129.6,147.9 129.6,147.7 128.8,147.6 128.8,140.2 133.5,147.9 134,147.9 134,140.2 134.8,140 
	134.8,139.9 "/>
<path class="st2" d="M139.7,144.3c0.1,1,0.4,1.8,0.9,2.6c0.3,0.4,0.6,0.6,1,0.8c0.4,0.2,0.8,0.3,1.3,0.3c0.5,0,0.9-0.1,1.2-0.4
	c0.3-0.2,0.7-0.7,1.1-1.3c-0.1-0.3-0.1-0.5-0.2-0.6c-0.1,0.4-0.3,0.8-0.6,1.2c-0.4,0.6-1,0.8-1.5,0.8c-1.4,0-2.1-1.1-2.1-3.4v0
	c0-0.1,0-0.1,0-0.2c0,0,0-0.1,0-0.2v0c0-1.2,0.2-2.1,0.5-2.7c0.4-0.6,0.9-0.9,1.5-0.9c0.4,0,0.8,0.1,1,0.3c0.3,0.2,0.5,0.4,0.7,0.8
	l0,0c0.3,0.4,0.4,0.8,0.4,1c0,0,0,0.1,0,0.1h0v-2.2l-0.2,0c-0.1,0-0.2,0.1-0.3,0.1c-0.1,0-0.1,0-0.1,0c-0.1,0-0.2,0-0.5-0.1
	l-0.4-0.1h0c-0.3-0.1-0.6-0.1-0.8-0.1c-0.6,0-1.1,0.2-1.6,0.5c-0.3,0.2-0.6,0.5-0.8,0.7c-0.6,0.7-0.9,1.6-0.9,2.7v0L139.7,144.3
	L139.7,144.3z"/>
<polygon class="st2" points="150.1,139.9 150.1,140 150.8,140.2 150.8,147.6 150.1,147.8 150.1,147.9 152.5,147.9 152.5,147.8 
	151.8,147.6 151.8,140.2 152.5,140 152.5,139.9 "/>
<path class="st2" d="M160.5,141.5l1.2,3.9h-2.4L160.5,141.5z M160.7,139.8l-2.3,7.8l-1.1,0.1v0.2h2.5v-0.2l-1.2-0.1l0.6-1.9h2.6
	l0.6,1.9l-0.9,0.1v0.2h2.5v-0.2l-0.6-0.1l0,0l-2.3-7.7H160.7z"/>
<path class="st2" d="M174.1,145.6c-0.2,0.9-0.5,1.4-0.6,1.5c-0.2,0.3-0.5,0.5-0.8,0.5l-2,0v-7.5l0.7-0.1v-0.1H169v0.1l0.7,0.1v7.4
	l-0.8,0.1v0.2h5.2V145.6z"/>
<path class="st3" d="M69.8,85.8c-0.1,0-0.1,0-0.2,0C69.7,85.8,69.7,85.8,69.8,85.8 M70.4,85.7c-0.1,0-0.2,0-0.3,0
	C70.2,85.7,70.3,85.7,70.4,85.7z M71.3,85.6c-0.1,0-0.3,0-0.6,0C71,85.6,71.2,85.6,71.3,85.6z M71,119.9c2.1-0.1,4.1-0.6,6-1.5
	c1.9-0.9,3.4-2.1,4.6-3.6c2.8-3.5,4.3-7.4,4.6-11.7V103h-0.1v-0.1c0-0.1,0-0.2,0-0.4c0-0.2,0-0.4,0-0.5c0-0.1,0-0.2,0-0.3
	c0-0.1,0.1-0.2,0.1-0.3h-0.1l0-0.1c-0.3-4.7-1.8-8.8-4.6-12.4c-1.2-1.4-2.6-2.7-4.3-3.7c-2-1.2-4.1-1.8-6.3-1.9h-0.2h-0.1
	c-2,0.1-4,0.7-6,1.9c-1.6,1-3,2.2-4.2,3.7c-2.4,3.1-3.8,7.2-4.2,12.4l0,0.1h0c0,0.2,0,0.4,0,0.5c0,0.3,0,0.7,0,1.1h0.1v0.1
	c0.3,4.7,1.7,8.6,4.2,11.7c1.2,1.5,2.7,2.7,4.5,3.6c1.8,0.9,3.7,1.4,5.7,1.5l0.1,0L71,119.9z M61.9,103L61.9,103c0-0.3,0-0.5,0-0.8
	c0-0.2,0-0.4,0-0.7h-0.1l0-0.1c0.1-10.4,3.2-15.8,9.3-16c6.1,0.2,9.2,5.5,9.3,16v0.1h-0.1c0,0.2,0,0.5,0,0.7c0,0.3,0,0.6,0,0.9h0.1
	v0.1c-0.1,9.4-2.7,14.5-8,15.4c-0.2,0-0.4,0.1-0.6,0.1c0,0,0,0-0.1,0c0,0-0.1,0-0.1,0c0.1,0-0.1,0-0.7,0c-0.5,0-0.8,0-0.7,0
	c-3.2-0.3-5.5-2.2-6.9-5.5c-1.1-2.5-1.7-5.8-1.7-10L61.9,103z M73.5,86c-0.1,0-0.2,0-0.1,0C73.3,85.9,73.3,85.9,73.5,86z M71.9,85.7
	c-0.2,0-0.4,0-0.6,0C71.5,85.6,71.7,85.6,71.9,85.7z M72.5,85.7c-0.1,0-0.2,0-0.4,0C72.2,85.7,72.4,85.7,72.5,85.7z M73,85.8
	c-0.1,0-0.2,0-0.3,0C72.8,85.8,72.9,85.8,73,85.8z"/>
<polygon class="st3" points="121.5,83.8 112.7,110 104.1,83.8 93.2,83.8 93.2,84.5 96.6,85.1 96.6,118.1 93.2,118.7 93.2,119.4 
	101.6,119.4 101.6,118.7 98.2,118.1 98.2,85.8 109.3,117.6 109.6,118.1 111.8,118.1 122.6,86.2 122.6,118.1 119.5,118.7 
	119.5,119.4 130,119.4 130,118.7 127.2,118.1 127.2,85.1 130,84.5 130,83.8 "/>
<path class="st3" d="M151.5,91.3l5.3,17.3h-10.5L151.5,91.3z M152.4,83.8L142.2,118l-4.8,0.6v0.7h11.1v-0.7l-5.1-0.6l2.5-8.3h11.3
	l2.5,8.3l-4.1,0.6v0.7h11.1v-0.7l-2.7-0.6L164,118l-10.2-34.2H152.4z"/>
<polygon class="st3" points="198,84 198,84.6 201.3,85.3 201.3,109.4 186.1,84 173.7,84 173.7,84.6 178.3,85.3 178.3,118.1 
	175,118.7 175,119.4 183.3,119.4 183.3,118.7 179.9,118.1 179.9,85.3 200.7,119.4 202.9,119.4 202.9,85.3 206.3,84.6 206.3,84 "/>
<path class="st3" d="M36.9,103.2c0.8,1.1,1.3,2.7,1.5,4.8c0.3,3.2,0.6,5.2,0.9,6.2c0.3,0.8,0.7,1.6,1.3,2.3c1.3,1.4,3.3,2.4,6.2,2.9
	c1,0.2,2,0.3,3.2,0.3c1,0,2.1-0.1,3.3-0.2c-0.2-0.3-0.3-0.7-0.5-1.1h-0.1c-0.9,0-1.7-0.1-2.5-0.2c-1.8-0.4-3.1-1-4-2
	c-0.4-0.5-0.7-1-0.9-1.4c-0.3-0.8-0.4-2-0.5-3.5c-0.2-2.8-0.6-5-1-6.5c-0.2-0.7-0.7-1.5-1.3-2.1c-0.8-0.9-2-1.7-3.7-2.2l-0.5-0.2
	l0.5-0.2c2.5-1,4.4-2.5,5.8-4.6c1.4-2.1,2.1-4.4,2.1-7c0-4.6-2.8-7.8-8.4-9.7c-2.9-1-5.9-1.4-8.9-1.4h-15v0.7l4.3,0.8v39.3l-4.3,0.8
	v1h14v-1l-4.3-0.8v-16h6.1c0.1,0,0.2,0,0.3,0C34.1,101.8,36.2,102.2,36.9,103.2 M24,99.3V78.6l0.2,0c3.7,0.1,5.8,0.1,6.3,0.2
	c3.6,0.4,6.2,1.3,7.8,2.9c1.6,1.5,2.4,3.8,2.4,6.9c0,2.8-0.4,4.9-1.3,6.4c-0.7,1.1-1.7,2.1-3,2.9c-1.5,0.9-3,1.4-4.5,1.4
	c-0.5,0-3.1,0-7.7,0H24z"/>
<polygon class="st3" points="213.9,77.5 213.9,78.1 217.2,78.9 217.2,118 213.9,118.7 213.9,119.6 226.3,119.6 226.3,118.7 
	222.7,118 222.7,78.9 226.3,78.1 226.3,77.5 "/>
<rect x="4.3" y="126.1" class="st1" width="232" height="1.2"/>
<path class="st2" d="M86.6,67c1.4-0.2,2.6-0.7,3.5-1.7c0.9-1,1.3-2.3,1.3-3.8c0-0.7-0.2-1.5-0.6-2.3c-0.4-0.7-0.8-1.3-1.3-1.7
	c-0.6-0.5-1.6-0.8-3.1-0.9c0,0-0.4,0-1.1,0c-0.7,0-1,0-1,0h-6.4v0.2l1.8,0.3V74l-1.8,0.3v0.5h6v-0.5L82,74v-6.8h2.6
	C84.8,67.2,85.5,67.2,86.6,67 M82,66.2v-8.9h2.3c-0.1,0,0.2,0,0.9,0c1,0,1.8,0.3,2.5,0.9c0.9,0.8,1.4,1.9,1.4,3.5
	c0,1.2-0.2,2.1-0.6,2.7c-0.3,0.5-0.7,0.9-1.3,1.3c-0.6,0.4-1.3,0.6-1.9,0.6C85.1,66.2,84,66.2,82,66.2L82,66.2z"/>
<path class="st2" d="M102.6,57.6C102.6,57.6,102.5,57.6,102.6,57.6C102.5,57.6,102.6,57.6,102.6,57.6 M102.9,57.6
	c-0.1,0-0.1,0-0.2,0C102.8,57.6,102.9,57.6,102.9,57.6z M103.4,57.5c-0.1,0-0.2,0-0.3,0C103.2,57.5,103.3,57.5,103.4,57.5z
	 M103.2,75.1c1.1,0,2.1-0.3,3.1-0.8c1-0.5,1.8-1.1,2.4-1.8c1.4-1.8,2.2-3.8,2.4-6v-0.1h0v0c0-0.1,0-0.1,0-0.2c0-0.1,0-0.2,0-0.2
	c0,0,0-0.1,0-0.1c0-0.1,0-0.1,0-0.1h0l0-0.1c-0.2-2.4-0.9-4.5-2.4-6.3c-0.6-0.7-1.3-1.4-2.2-1.9c-1-0.6-2.1-0.9-3.2-1h-0.1h-0.1
	c-1,0-2.1,0.4-3.1,1c-0.8,0.5-1.5,1.1-2.1,1.9c-1.3,1.6-2,3.7-2.1,6.3l0,0.1h0c0,0.1,0,0.2,0,0.2c0,0.2,0,0.4,0,0.5h0v0.1
	c0.2,2.4,0.9,4.4,2.1,6c0.6,0.8,1.4,1.4,2.3,1.8c0.9,0.5,1.9,0.7,2.9,0.8H103.2L103.2,75.1z M98.6,66.4L98.6,66.4c0-0.1,0-0.3,0-0.4
	c0-0.1,0-0.2,0-0.4h0l0-0.1c0-5.4,1.6-8.1,4.8-8.2c3.1,0.1,4.7,2.8,4.8,8.2v0.1h0c0,0.1,0,0.2,0,0.3c0,0.2,0,0.3,0,0.4h0v0.1
	c0,4.8-1.4,7.4-4.1,7.9c-0.1,0-0.2,0-0.3,0c0,0,0,0,0,0c0,0,0,0,0,0c0,0-0.1,0-0.3,0c-0.3,0-0.4,0-0.4,0c-1.6-0.2-2.8-1.1-3.5-2.8
	C98.9,70.3,98.6,68.6,98.6,66.4L98.6,66.4z M104.5,57.7C104.4,57.7,104.4,57.7,104.5,57.7C104.4,57.7,104.4,57.7,104.5,57.7z
	 M103.7,57.5c-0.1,0-0.2,0-0.3,0C103.5,57.5,103.6,57.5,103.7,57.5z M104,57.6c-0.1,0-0.1,0-0.2,0C103.9,57.6,103.9,57.6,104,57.6z
	 M104.3,57.6c-0.1,0-0.1,0-0.1,0C104.1,57.6,104.2,57.6,104.3,57.6z"/>
<path class="st2" d="M124.1,67.9c0.4,0.5,0.6,1.2,0.6,2.1c0.1,1.4,0.2,2.3,0.4,2.7c0.1,0.4,0.3,0.7,0.6,1c0.5,0.6,1.4,1,2.7,1.2
	c0.4,0.1,0.9,0.1,1.4,0.1c0.4,0,0.9,0,1.4-0.1c-0.1-0.1-0.1-0.3-0.2-0.5h0c-0.4,0-0.7,0-1.1-0.1c-0.8-0.2-1.3-0.5-1.7-0.9
	c-0.2-0.2-0.3-0.4-0.4-0.6c-0.1-0.3-0.2-0.9-0.2-1.5c-0.1-1.2-0.2-2.2-0.4-2.8c-0.1-0.3-0.3-0.6-0.5-0.9c-0.4-0.4-0.9-0.7-1.6-0.9
	l-0.2-0.1l0.2-0.1c1.1-0.4,1.9-1.1,2.5-2c0.6-0.9,0.9-1.9,0.9-3c0-2-1.2-3.4-3.6-4.2c-1.3-0.4-2.5-0.6-3.8-0.6h-6.5v0.3l1.8,0.3
	v16.9l-1.8,0.3v0.4h6v-0.4l-1.8-0.3v-6.9h2.6c0,0,0.1,0,0.1,0C122.8,67.2,123.8,67.5,124.1,67.9 M118.5,66.2v-8.9l0.1,0
	c1.6,0,2.5,0.1,2.7,0.1c1.6,0.2,2.7,0.6,3.4,1.2c0.7,0.7,1,1.7,1,3c0,1.2-0.2,2.1-0.6,2.8c-0.3,0.5-0.7,0.9-1.3,1.3
	c-0.6,0.4-1.3,0.6-1.9,0.6C121.7,66.2,120.6,66.2,118.5,66.2L118.5,66.2z"/>
<path class="st2" d="M132.7,56.7V61l0.3-0.3c0.1-0.1,0.1-0.4,0.3-0.7c0.5-1.1,0.8-1.7,1-1.9c0.5-0.5,1.1-0.7,1.8-0.8
	c0.1,0,0.5,0,1.3,0h1.4v16.8l-1.8,0.3v0.3h5.9v-0.3l-1.8-0.3V57.4l0.1,0h1.4c0.7,0,1.2,0,1.2,0c0.7,0,1.3,0.3,1.8,0.8
	c0.2,0.2,0.5,0.8,1.1,2c0.1,0.3,0.2,0.5,0.2,0.6l0.3,0.3v-4.3H132.7z"/>
<path class="st2" d="M155.1,60.4l2.7,8.9h-5.4L155.1,60.4z M155.5,56.6l-5.2,17.6l-2.5,0.3v0.4h5.7v-0.4l-2.6-0.3l1.3-4.2h5.8
	l1.3,4.2l-2.1,0.3v0.4h5.7v-0.4l-1.4-0.3l0,0l-5.2-17.5H155.5z"/>
</svg>
