<?xml version="1.0" encoding="utf-8"?>
<!-- Generator: Adobe Illustrator 22.0.1, SVG Export Plug-In . SVG Version: 6.00 Build 0)  -->
<svg version="1.1" id="Layer_1" xmlns="http://www.w3.org/2000/svg" xmlns:xlink="http://www.w3.org/1999/xlink" x="0px" y="0px"
	 viewBox="0 0 200 200" style="enable-background:new 0 0 200 200;" xml:space="preserve">
<style type="text/css">
	.st0{fill-rule:evenodd;clip-rule:evenodd;fill:#FFFFFF;}
</style>
<path class="st0" d="M111.9,92.1h61l14.8,15.5l-14.8,15.5h-61V92.1z M88.1,85.1H27L12.2,69.6L27,54.1h61V85.1z M196,108v-0.7
	c-0.1-0.8-0.4-1.5-1-2.1l-18-18.8c-0.7-0.8-1.7-1.3-2.7-1.3h-62.5V33c0-6-4.9-10.9-11-11H99c-6,0-10.9,4.9-11,11v14H25.5
	c-1,0-1.9,0.4-2.5,1.1l-18.1,19c-1.3,1.4-1.3,3.5,0,4.8l18,18.8c0.7,0.8,1.7,1.3,2.7,1.3h62.5v78.8H67c-1.9-0.2-3.6,1.3-3.8,3.2
	c0,0.1,0,0.2,0,0.3c0,1.8,1.4,3.4,3.2,3.5c0.1,0,0.2,0,0.2,0h0.1c0.1,0,0.2,0,0.2,0h65.7c1.9-0.2,3.4-1.8,3.2-3.8
	c-0.1-1.7-1.5-3.1-3.2-3.2h-20.8v-40.7h62.5c1,0,1.9-0.4,2.5-1.1l18.1-19C195.6,109.5,195.9,108.8,196,108z M104.8,88.6v82.3h-9.7
	V33c0-2.2,1.8-3.9,4-4h1.9c2.2,0,3.9,1.8,4,4L104.8,88.6z"/>
</svg>
